<svg xmlns="http://www.w3.org/2000/svg" viewBox="0 0 1600 900" width="1600" height="900" fill="none">
  <defs>
    <!-- Architectural grid pattern -->
    <pattern id="calm-grid" width="40" height="40" patternUnits="userSpaceOnUse">
      <path d="M 40 0 L 0 0 0 40" fill="none" stroke="#1E293B" stroke-width="0.75" stroke-opacity="0.6"/>
    </pattern>
    <pattern id="calm-subgrid" width="200" height="200" patternUnits="userSpaceOnUse">
      <rect width="200" height="200" fill="none" stroke="#1E293B" stroke-width="1.5" stroke-opacity="0.9"/>
    </pattern>
  </defs>

  <!-- Base Dark Canvas -->
  <rect width="1600" height="900" fill="#0B0F19"/>
  <rect width="1600" height="900" fill="url(#calm-grid)"/>
  <rect width="1600" height="900" fill="url(#calm-subgrid)"/>

  <!-- Outer Viewport Calibration & Technical Border -->
  <rect x="24" y="24" width="1552" height="852" rx="12" stroke="#1E293B" stroke-width="1.5"/>
  <circle cx="24" cy="24" r="3" fill="#334155"/>
  <circle cx="1576" cy="24" r="3" fill="#334155"/>
  <circle cx="24" cy="876" r="3" fill="#334155"/>
  <circle cx="1576" cy="876" r="3" fill="#334155"/>

  <!-- Calibration Marks & Coordinate Crosshairs -->
  <g stroke="#334155" stroke-width="1">
    <path d="M 800 30 L 800 46 M 800 854 L 800 870"/>
    <path d="M 30 450 L 46 450 M 1554 450 L 1570 450"/>
    <path d="M 790 450 L 810 450 M 800 440 L 800 460"/>
  </g>
  <text x="816" y="454" fill="#475569" font-family="monospace" font-size="11" letter-spacing="1">ORIGIN (0800, 0450)</text>

  <!-- Top System Status Header Bar (Dormant) -->
  <g transform="translate(60, 56)">
    <rect width="1480" height="52" rx="8" fill="#0F172A" stroke="#1E293B" stroke-width="1"/>
    <!-- Terminal Dots -->
    <circle cx="24" cy="26" r="5" fill="#1E293B"/>
    <circle cx="42" cy="26" r="5" fill="#1E293B"/>
    <circle cx="60" cy="26" r="5" fill="#1E293B"/>
    
    <text x="86" y="31" fill="#64748B" font-family="monospace" font-size="12" font-weight="600" letter-spacing="1">
      NOVAPILOT ARCHITECTURAL BLUEPRINT // SUBSYSTEM SCHEMATIC
    </text>
    
    <!-- State Indicators (Dormant) -->
    <rect x="940" y="14" width="220" height="24" rx="4" fill="#1E293B" fill-opacity="0.4" stroke="#334155" stroke-width="0.75"/>
    <circle cx="954" cy="26" r="3.5" fill="#64748B"/>
    <text x="966" y="30" fill="#64748B" font-family="monospace" font-size="10">AUDIO CAPTURE: STANDBY</text>

    <rect x="1180" y="14" width="260" height="24" rx="4" fill="#1E293B" fill-opacity="0.4" stroke="#334155" stroke-width="0.75"/>
    <circle cx="1194" cy="26" r="3.5" fill="#64748B"/>
    <text x="1206" y="30" fill="#64748B" font-family="monospace" font-size="10">WDA_EXCLUDEFROMCAPTURE: IDLE</text>
  </g>

  <!-- Main Architecture 3-Column Schematic Grid -->
  <!-- Column 1: Audio Ring Buffer / WASAPI CPAL Loopback -->
  <g transform="translate(60, 136)">
    <rect width="470" height="520" rx="10" fill="#0F172A" fill-opacity="0.7" stroke="#1E293B" stroke-width="1"/>
    
    <!-- Subsystem Header -->
    <path d="M 0 40 L 470 40" stroke="#1E293B" stroke-width="1"/>
    <text x="20" y="26" fill="#94A3B8" font-family="monospace" font-size="12" font-weight="600">
      01 // WASAPI AUDIO INGEST PIPELINE
    </text>
    <text x="370" y="26" fill="#475569" font-family="monospace" font-size="10">PORT: 16kHz</text>

    <!-- Dormant SPSC Ring Buffer Circular Diagram -->
    <g transform="translate(235, 170)">
      <circle cx="0" cy="0" r="90" stroke="#1E293B" stroke-width="1.5" stroke-dasharray="4 4" fill="none"/>
      <circle cx="0" cy="0" r="60" stroke="#1E293B" stroke-width="1" fill="#0B0F19"/>
      <!-- SPSC Nodes (12 dormant segments) -->
      <circle cx="0" cy="-90" r="5" fill="#334155"/>
      <circle cx="45" cy="-78" r="5" fill="#334155"/>
      <circle cx="78" cy="-45" r="5" fill="#334155"/>
      <circle cx="90" cy="0" r="5" fill="#334155"/>
      <circle cx="78" cy="45" r="5" fill="#334155"/>
      <circle cx="45" cy="78" r="5" fill="#334155"/>
      <circle cx="0" cy="90" r="5" fill="#334155"/>
      <circle cx="-45" cy="78" r="5" fill="#334155"/>
      <circle cx="-78" cy="45" r="5" fill="#334155"/>
      <circle cx="-90" cy="0" r="5" fill="#334155"/>
      <circle cx="-78" cy="-45" r="5" fill="#334155"/>
      <circle cx="-45" cy="-78" r="5" fill="#334155"/>
      <text x="0" y="-5" text-anchor="middle" fill="#475569" font-family="monospace" font-size="10" font-weight="600">SPSC RING</text>
      <text x="0" y="12" text-anchor="middle" fill="#334155" font-family="monospace" font-size="9">32,768 HEADROOM</text>
    </g>

    <!-- Flat Dormant Audio Waveform (Zero Signal) -->
    <g transform="translate(30, 290)">
      <rect width="410" height="80" rx="6" fill="#0B0F19" stroke="#1E293B" stroke-width="1"/>
      <line x1="20" y1="40" x2="390" y2="40" stroke="#334155" stroke-width="1.5" stroke-dasharray="2 2"/>
      <text x="24" y="24" fill="#475569" font-family="monospace" font-size="10">CHANNEL 0 (MIC): ZERO SIGNAL [INACTIVE]</text>
      <text x="350" y="68" fill="#334155" font-family="monospace" font-size="9">0.00 dB</text>
    </g>

    <!-- DSP Specs Table -->
    <g transform="translate(30, 395)" font-family="monospace" font-size="11" fill="#64748B">
      <text x="0" y="20">• Format: 16-bit PCM Linear / 16,000 Hz</text>
      <text x="0" y="44">• DSP Buffer: SPSC Lock-Free Ring (Rust)</text>
      <text x="0" y="68">• Batch Window: 60ms (3 × 20ms Frames)</text>
      <text x="0" y="92">• Status: Awaiting Stream Initialization</text>
    </g>
  </g>

  <!-- Column 2: Stealth Window Overlay & Display Boundary (Centerpiece) -->
  <g transform="translate(565, 136)">
    <rect width="470" height="520" rx="10" fill="#0F172A" fill-opacity="0.7" stroke="#1E293B" stroke-width="1"/>
    
    <!-- Subsystem Header -->
    <path d="M 0 40 L 470 40" stroke="#1E293B" stroke-width="1"/>
    <text x="20" y="26" fill="#94A3B8" font-family="monospace" font-size="12" font-weight="600">
      02 // WIN32 STEALTH OVERLAY SUBSYSTEM
    </text>
    <text x="360" y="26" fill="#475569" font-family="monospace" font-size="10">AFFINITY: 0x11</text>

    <!-- Dormant Stealth Overlay Frame Blueprint -->
    <g transform="translate(30, 65)">
      <!-- Outline representing the stealth capture boundary -->
      <rect width="410" height="260" rx="8" fill="#0B0F19" stroke="#334155" stroke-width="1.5" stroke-dasharray="6 4"/>
      
      <!-- Inset Window Frame Blueprint -->
      <rect x="16" y="16" width="378" height="228" rx="4" fill="none" stroke="#1E293B" stroke-width="1"/>
      <path d="M 16 46 L 394 46" stroke="#1E293B" stroke-width="1"/>
      
      <circle cx="32" cy="31" r="3.5" fill="#334155"/>
      <circle cx="46" cy="31" r="3.5" fill="#334155"/>
      <circle cx="60" cy="31" r="3.5" fill="#334155"/>
      
      <text x="80" y="35" fill="#475569" font-family="monospace" font-size="10">
        WDA_EXCLUDEFROMCAPTURE [DORMANT]
      </text>

      <!-- Center Crosshair and Stealth Status -->
      <circle cx="205" cy="140" r="32" stroke="#1E293B" stroke-width="1" fill="none"/>
      <line x1="205" y1="100" x2="205" y2="180" stroke="#1E293B" stroke-width="1"/>
      <line x1="165" y1="140" x2="245" y2="140" stroke="#1E293B" stroke-width="1"/>
      
      <text x="205" y="195" text-anchor="middle" fill="#475569" font-family="monospace" font-size="10">
        AFFINITY: DORMANT / CLICK-THROUGH OFF
      </text>
      <text x="205" y="215" text-anchor="middle" fill="#334155" font-family="monospace" font-size="9">
        HWND: 0x00000000 (UNATTACHED)
      </text>
    </g>

    <!-- Overlay Specs & Shortcut Map -->
    <g transform="translate(30, 360)">
      <rect width="410" height="125" rx="6" fill="#0B0F19" stroke="#1E293B" stroke-width="1"/>
      <text x="16" y="24" fill="#64748B" font-family="monospace" font-size="11" font-weight="600">STEALTH BINDINGS (STANDBY):</text>
      <g font-family="monospace" font-size="10" fill="#475569" transform="translate(16, 46)">
        <text x="0" y="0">Ctrl+Shift+B   → Toggle Transparent Click-Through</text>
        <text x="0" y="22">Ctrl+B         → Instant Ghost Mode Toggle</text>
        <text x="0" y="44">SetWindowDisplayAffinity(0x00000011)</text>
        <text x="0" y="66">Memory Allocation: 42.4 MB (Zero Leakage)</text>
      </g>
    </g>
  </g>

  <!-- Column 3: ThinkStripper FSM Reasoning Engine -->
  <g transform="translate(1070, 136)">
    <rect width="470" height="520" rx="10" fill="#0F172A" fill-opacity="0.7" stroke="#1E293B" stroke-width="1"/>
    
    <!-- Subsystem Header -->
    <path d="M 0 40 L 470 40" stroke="#1E293B" stroke-width="1"/>
    <text x="20" y="26" fill="#94A3B8" font-family="monospace" font-size="12" font-weight="600">
      03 // THINKSTRIPPER FSM PIPELINE
    </text>
    <text x="360" y="26" fill="#475569" font-family="monospace" font-size="10">DEEPSEEK / CLAUDE</text>

    <!-- Dormant FSM Pipeline Nodes -->
    <g transform="translate(45, 75)">
      <!-- Node A: Ingest -->
      <rect x="0" y="0" width="380" height="56" rx="6" fill="#0B0F19" stroke="#1E293B" stroke-width="1"/>
      <circle cx="28" cy="28" r="10" fill="#1E293B"/>
      <text x="28" y="32" text-anchor="middle" fill="#64748B" font-family="monospace" font-size="10">01</text>
      <text x="52" y="24" fill="#94A3B8" font-family="monospace" font-size="11" font-weight="600">RAW LLM TOKEN INGESTION</text>
      <text x="52" y="42" fill="#475569" font-family="monospace" font-size="9">SSE Stream Buffer: IDLE</text>

      <!-- Connection Arrow 1 -->
      <line x1="190" y1="56" x2="190" y2="86" stroke="#1E293B" stroke-width="1.5" stroke-dasharray="3 3"/>

      <!-- Node B: Reasoning Stripper Filter (ThinkStripper) -->
      <rect x="0" y="86" width="380" height="66" rx="6" fill="#0B0F19" stroke="#334155" stroke-width="1"/>
      <circle cx="28" cy="119" r="10" fill="#1E293B"/>
      <text x="28" y="123" text-anchor="middle" fill="#64748B" font-family="monospace" font-size="10">02</text>
      <text x="52" y="112" fill="#94A3B8" font-family="monospace" font-size="11" font-weight="600">STREAMING THINKSTRIPPER FSM</text>
      <text x="52" y="130" fill="#475569" font-family="monospace" font-size="9">&lt;think&gt; ... &lt;/think&gt; Filter State: IDLE</text>
      <text x="52" y="144" fill="#334155" font-family="monospace" font-size="9">Leakage Prevention: ARMED [0 Bytes]</text>

      <!-- Connection Arrow 2 -->
      <line x1="190" y1="152" x2="190" y2="182" stroke="#1E293B" stroke-width="1.5" stroke-dasharray="3 3"/>

      <!-- Node C: Executive Synthesis Delivery -->
      <rect x="0" y="182" width="380" height="56" rx="6" fill="#0B0F19" stroke="#1E293B" stroke-width="1"/>
      <circle cx="28" cy="210" r="10" fill="#1E293B"/>
      <text x="28" y="214" text-anchor="middle" fill="#64748B" font-family="monospace" font-size="10">03</text>
      <text x="52" y="206" fill="#94A3B8" font-family="monospace" font-size="11" font-weight="600">EXECUTIVE BULLET SYNTHESIS</text>
      <text x="52" y="224" fill="#475569" font-family="monospace" font-size="9">Overlay Dispatch: STANDBY</text>
    </g>

    <!-- Privacy Guarantee Badge (Dormant) -->
    <g transform="translate(45, 360)">
      <rect width="380" height="125" rx="6" fill="#0B0F19" stroke="#1E293B" stroke-width="1"/>
      <text x="16" y="24" fill="#64748B" font-family="monospace" font-size="11" font-weight="600">ZERO STORAGE AUDIT TRAIL:</text>
      <g font-family="monospace" font-size="10" fill="#475569" transform="translate(16, 46)">
        <text x="0" y="0">Local Ephemeral RAM Only: NO DISK WRITES</text>
        <text x="0" y="22">TLS 1.3 Direct Edge Pipe (No Intermediate Logging)</text>
        <text x="0" y="44">Telegram Telemetry: Serverless Crash Dump Only</text>
        <text x="0" y="66">Kill-Switch State: INTEGRITY VERIFIED</text>
      </g>
    </g>
  </g>

  <!-- Bottom Global Telemetry Strip -->
  <g transform="translate(60, 680)">
    <rect width="1480" height="150" rx="8" fill="#0F172A" stroke="#1E293B" stroke-width="1"/>
    
    <!-- Title -->
    <text x="24" y="32" fill="#94A3B8" font-family="monospace" font-size="12" font-weight="600">
      SYS_TELEMETRY // ARCHITECTURE INTEGRITY AUDIT (CALM / DORMANT STATE)
    </text>
    <text x="1340" y="32" fill="#475569" font-family="monospace" font-size="11">CLOCK: 0.00ms</text>
    <line x1="0" y1="46" x2="1480" y2="46" stroke="#1E293B" stroke-width="1"/>

    <!-- 4 Blueprint Metrics -->
    <g transform="translate(24, 66)">
      <!-- Metric 1 -->
      <g transform="translate(0, 0)">
        <text x="0" y="16" fill="#475569" font-family="monospace" font-size="10">AUDIO LATENCY (WASAPI)</text>
        <text x="0" y="44" fill="#64748B" font-family="monospace" font-size="20" font-weight="700">&lt; 5.0 ms</text>
        <text x="0" y="64" fill="#334155" font-family="monospace" font-size="10">Target: Zero Buffer Contention</text>
      </g>
      <!-- Metric 2 -->
      <g transform="translate(360, 0)">
        <text x="0" y="16" fill="#475569" font-family="monospace" font-size="10">CAPTURE STEALTH GUARANTEE</text>
        <text x="0" y="44" fill="#64748B" font-family="monospace" font-size="20" font-weight="700">100% EXCLUDED</text>
        <text x="0" y="64" fill="#334155" font-family="monospace" font-size="10">Direct OS Kernel Window Affinity</text>
      </g>
      <!-- Metric 3 -->
      <g transform="translate(720, 0)">
        <text x="0" y="16" fill="#475569" font-family="monospace" font-size="10">THINKSTRIPPER FSM LEAKAGE</text>
        <text x="0" y="44" fill="#64748B" font-family="monospace" font-size="20" font-weight="700">0 BYTES</text>
        <text x="0" y="64" fill="#334155" font-family="monospace" font-size="10">Mathematical FSM State Machine</text>
      </g>
      <!-- Metric 4 -->
      <g transform="translate(1080, 0)">
        <text x="0" y="16" fill="#475569" font-family="monospace" font-size="10">ACTIVE SYSTEM FOOTPRINT</text>
        <text x="0" y="44" fill="#64748B" font-family="monospace" font-size="20" font-weight="700">~45 MB RAM</text>
        <text x="0" y="64" fill="#334155" font-family="monospace" font-size="10">Electron + Rust Napi Direct</text>
      </g>
    </g>
  </g>

  <!-- Technical Blueprint Stamp in Corner -->
  <g transform="translate(1420, 846)">
    <text x="0" y="0" fill="#334155" font-family="monospace" font-size="9" text-anchor="end">
      REV: 2.7.1 // ARCH-WIN64 // STANDBY
    </text>
  </g>
</svg>
